<svg aria-hidden="true" style="position: absolute; width: 0; height: 0; overflow: hidden;" version="1.1" xmlns="http://www.w3.org/2000/svg" xmlns:xlink="http://www.w3.org/1999/xlink">
<defs>
<symbol id="icon-arrow-right" viewBox="0 0 32 32">
<path fill="none" stroke="#fff" style="stroke: var(--color1, #fff)" stroke-linejoin="round" stroke-linecap="round" stroke-miterlimit="4" stroke-width="1.6" d="M6.667 16h18.667M25.333 16l-8 8M25.333 16l-8-8"></path>
</symbol>
<symbol id="icon-file-pencil" viewBox="0 0 32 32">
<path fill="none" stroke="#fff" style="stroke: var(--color1, #fff)" stroke-linejoin="round" stroke-linecap="round" stroke-miterlimit="4" stroke-width="1.6" d="M18.667 4v5.333c0 0.354 0.141 0.693 0.391 0.943s0.589 0.391 0.943 0.391h5.333M18.667 4h-9.333c-0.707 0-1.386 0.281-1.886 0.781s-0.781 1.178-0.781 1.886v18.667c0 0.707 0.281 1.385 0.781 1.886s1.178 0.781 1.886 0.781h13.333c0.707 0 1.385-0.281 1.886-0.781s0.781-1.178 0.781-1.886v-14.667M18.667 4l6.667 6.667M13.333 24l6.667-6.667c0.354-0.354 0.552-0.833 0.552-1.333s-0.199-0.98-0.552-1.333c-0.354-0.354-0.833-0.552-1.333-0.552s-0.98 0.199-1.333 0.552l-6.667 6.667v2.667h2.667z"></path>
</symbol>
<symbol id="icon-plus" viewBox="0 0 32 32">
<path fill="none" stroke="#fff" style="stroke: var(--color1, #fff)" stroke-linejoin="round" stroke-linecap="round" stroke-miterlimit="4" stroke-width="1.6" d="M16 6.667v18.667M6.667 16h18.667"></path>
</symbol>
<symbol id="icon-x" viewBox="0 0 32 32">
<path fill="none" stroke="#fff" style="stroke: var(--color1, #fff)" stroke-linejoin="round" stroke-linecap="round" stroke-miterlimit="4" stroke-width="1.6" d="M24 8l-16 16M8 8l16 16"></path>
</symbol>
</defs>
</svg>
